<?xml version="1.0" standalone="no"?>
<!DOCTYPE svg PUBLIC "-//W3C//DTD SVG 20010904//EN"
 "http://www.w3.org/TR/2001/REC-SVG-20010904/DTD/svg10.dtd">
<svg version="1.0" xmlns="http://www.w3.org/2000/svg"
 width="1182.000000pt" height="812.000000pt" viewBox="0 0 1182.000000 812.000000"
 preserveAspectRatio="xMidYMid meet">
<metadata>
Created by potrace 1.16, written by Peter Selinger 2001-2019
</metadata>
<g transform="translate(0.000000,812.000000) scale(0.100000,-0.100000)"
fill="#000000" stroke="none">
<path d="M3055 8092 c-69 -34 -137 -102 -168 -170 -16 -35 -21 -68 -22 -127 0
-71 4 -88 33 -147 33 -68 89 -126 144 -150 l28 -13 0 -157 c0 -144 -2 -158
-17 -158 -12 1 -27 20 -42 52 -35 75 -111 184 -180 260 -450 491 -1231 511
-1705 44 -79 -78 -170 -199 -216 -288 l-34 -66 -91 -4 c-78 -3 -100 -7 -150
-33 -66 -34 -125 -101 -144 -165 -7 -23 -11 -129 -11 -281 0 -235 1 -246 24
-294 49 -107 145 -166 282 -173 l81 -4 27 -58 c79 -167 221 -328 386 -438 290
-193 692 -246 1039 -137 295 93 550 302 687 560 l38 72 86 5 c140 8 225 59
277 166 l28 57 0 250 c0 240 -1 252 -23 301 -13 28 -39 66 -58 85 l-34 33 0
187 0 187 31 13 c52 21 125 102 148 164 32 86 29 193 -7 270 -31 65 -87 121
-154 156 -33 17 -65 24 -133 26 -83 4 -95 2 -150 -25z m222 -226 c37 -40 42
-79 18 -126 -21 -42 -53 -60 -103 -60 -37 0 -50 6 -78 34 -27 27 -34 42 -34
73 1 114 121 162 197 79z m-888 -720 c224 -58 351 -234 351 -486 0 -239 -142
-477 -375 -628 -326 -212 -697 -159 -981 141 -85 88 -142 182 -181 292 -24 69
-27 96 -28 195 0 95 4 127 23 182 67 193 199 292 423 317 46 5 224 8 394 6
249 -2 323 -6 374 -19z"/>
<path d="M8402 7537 l-22 -23 0 -1300 0 -1301 23 -21 c23 -22 23 -22 528 -22
563 0 589 3 718 66 143 71 244 208 276 377 22 114 22 1000 0 1102 -47 220
-201 374 -420 420 -85 18 -398 20 -477 4 -73 -15 -145 -53 -195 -102 l-43 -41
0 412 c0 399 -1 413 -20 432 -18 18 -33 20 -183 20 -158 0 -164 -1 -185 -23z
m973 -1068 c52 -15 119 -82 134 -134 7 -26 11 -187 11 -475 0 -288 -4 -449
-11 -475 -15 -53 -82 -120 -136 -134 -27 -7 -135 -10 -310 -9 l-268 3 -3 475
c-3 494 2 569 38 641 24 46 75 86 132 104 54 17 356 20 413 4z"/>
<path d="M5362 6829 c-241 -31 -404 -171 -469 -400 -16 -58 -18 -111 -18 -574
0 -458 2 -517 18 -574 44 -162 136 -280 268 -345 123 -60 169 -66 565 -66 332
0 353 1 375 19 23 19 24 24 24 160 0 202 34 185 -368 191 -321 5 -322 5 -365
30 -27 15 -54 42 -70 70 l-27 45 -3 445 c-2 316 0 457 8 485 17 58 56 104 109
129 43 20 66 21 363 26 287 5 319 7 335 23 16 15 18 37 18 157 0 202 34 185
-373 186 -180 1 -356 -2 -390 -7z"/>
<path d="M6465 6830 c-52 -20 -50 10 -50 -754 0 -652 2 -717 18 -789 51 -217
191 -357 403 -402 97 -21 409 -20 489 0 76 20 149 60 186 102 l29 34 0 -49 c0
-35 6 -57 21 -76 l20 -26 164 0 c145 0 165 2 186 19 l24 19 3 929 c2 663 -1
936 -9 955 -16 39 -55 48 -206 48 -146 0 -188 -11 -198 -53 -3 -12 -6 -323 -8
-692 -2 -735 1 -699 -63 -774 -55 -66 -90 -75 -280 -79 -110 -2 -187 1 -215 8
-59 16 -122 81 -137 143 -9 32 -12 241 -12 711 0 385 -4 675 -9 689 -6 14 -23
29 -42 36 -37 13 -284 14 -314 1z"/>
<path d="M10784 6830 c-92 -13 -142 -28 -217 -67 -81 -43 -173 -137 -211 -217
-60 -128 -61 -134 -61 -691 0 -561 0 -563 62 -693 45 -97 126 -178 224 -226
128 -63 157 -66 697 -66 469 0 483 1 502 20 18 18 20 33 20 158 0 104 -4 143
-14 158 -14 18 -34 19 -463 24 -505 6 -502 5 -568 82 -43 51 -57 113 -53 244
l3 99 538 5 539 5 20 25 c19 23 19 36 15 355 -4 367 -8 391 -74 518 -63 119
-186 211 -338 253 -46 13 -117 17 -310 19 -137 2 -278 0 -311 -5z m507 -387
c91 -41 109 -93 109 -314 l0 -169 -345 0 -345 0 -6 27 c-10 39 3 303 17 343
41 118 100 140 359 136 142 -2 171 -5 211 -23z"/>
<path d="M849 5886 c-31 -12 -72 -32 -91 -44 -46 -28 -118 -106 -151 -162 -56
-96 -57 -113 -57 -743 0 -548 1 -579 18 -572 77 31 271 68 425 80 l77 7 0 76
c1 152 18 267 130 842 22 113 42 214 44 225 4 16 -9 31 -62 70 -37 27 -112 93
-168 147 -55 54 -103 98 -105 98 -2 0 -29 -11 -60 -24z"/>
<path d="M2920 5821 c-47 -48 -120 -113 -162 -145 -43 -32 -78 -62 -78 -66 0
-4 27 -149 61 -321 95 -495 99 -516 109 -664 5 -77 10 -148 10 -157 0 -13 14
-18 68 -23 167 -15 301 -40 435 -81 16 -5 17 26 17 553 0 359 -4 581 -11 619
-25 140 -125 272 -250 332 -105 51 -102 52 -199 -47z"/>
<path d="M2475 5508 c-91 -39 -264 -83 -389 -98 -188 -24 -417 4 -614 76 -53
19 -101 36 -106 37 -9 2 -54 -380 -55 -470 l-1 -43 651 0 651 0 -5 33 c-3 17
-16 137 -28 265 -12 127 -25 232 -28 231 -3 0 -37 -14 -76 -31z"/>
<path d="M1226 4838 c-3 -24 -8 -121 -11 -215 l-6 -173 741 0 740 0 0 123 c0
68 -3 165 -6 215 l-7 92 -723 0 -723 0 -5 -42z"/>
<path d="M6040 4560 c-19 -19 -20 -33 -20 -437 l0 -417 -42 41 c-94 91 -209
118 -478 110 -190 -5 -253 -17 -356 -67 -113 -55 -212 -186 -251 -332 -25 -94
-32 -973 -9 -1110 31 -184 126 -323 270 -393 106 -52 182 -65 396 -65 255 0
343 23 430 110 l40 40 0 -55 c0 -92 8 -95 205 -95 152 0 167 2 185 20 20 20
20 33 20 1325 0 1292 0 1305 -20 1325 -18 18 -33 20 -185 20 -152 0 -167 -2
-185 -20z m-175 -1093 c55 -25 99 -70 127 -131 23 -51 23 -54 23 -456 0 -370
-2 -410 -19 -459 -25 -71 -79 -125 -147 -145 -63 -19 -351 -22 -414 -5 -52 15
-119 82 -134 134 -15 56 -15 889 0 936 24 72 78 120 154 140 17 4 107 7 200 5
136 -1 178 -5 210 -19z"/>
<path d="M895 4319 c-333 -35 -607 -161 -680 -314 -29 -60 -31 -161 -6 -203
40 -63 125 -94 200 -71 46 14 111 77 111 108 0 48 111 100 310 143 92 20 127
21 1050 25 612 3 1002 1 1087 -6 142 -11 261 -37 348 -76 46 -20 58 -31 76
-70 31 -66 85 -100 158 -100 72 0 122 29 150 89 25 51 26 85 5 156 -12 42 -29
67 -73 110 -111 109 -306 180 -576 210 -109 12 -2043 11 -2160 -1z"/>
<path d="M855 3854 c-94 -15 -164 -33 -252 -65 l-53 -20 0 -330 0 -330 33 23
c17 12 95 86 173 163 204 203 289 342 312 509 l9 66 -66 -1 c-36 -1 -106 -7
-156 -15z"/>
<path d="M1210 2675 l0 -1195 335 0 335 0 0 514 c0 504 0 514 21 540 26 33 77
36 105 5 18 -20 19 -42 16 -540 l-3 -519 335 0 336 0 0 1195 0 1195 -740 0
-740 0 0 -1195z"/>
<path d="M2834 3829 c27 -180 93 -305 251 -477 59 -63 249 -236 283 -256 9 -6
12 64 12 337 l0 344 -77 26 c-127 44 -201 57 -342 64 l-133 6 6 -44z"/>
<path d="M7299 3850 c-235 -37 -394 -177 -457 -402 -15 -56 -17 -119 -17 -573
0 -456 2 -517 18 -575 43 -159 138 -280 270 -344 127 -62 169 -66 702 -66 462
0 476 1 495 20 18 18 20 33 20 158 0 103 -4 143 -14 158 -14 18 -34 19 -463
24 -485 6 -491 6 -551 63 -54 50 -66 92 -67 232 l0 130 538 5 539 5 20 25 c19
23 19 36 16 355 -5 356 -8 384 -64 502 -38 79 -130 173 -213 217 -115 60 -164
68 -456 71 -143 2 -285 0 -316 -5z m519 -384 c50 -22 87 -63 102 -114 6 -20
14 -107 17 -192 5 -131 3 -157 -9 -168 -12 -9 -93 -12 -349 -10 l-334 3 0 180
c0 163 2 184 21 219 46 88 106 107 339 103 137 -3 178 -7 213 -21z"/>
<path d="M8572 3844 c-16 -11 -22 -25 -22 -52 0 -29 446 -1627 506 -1814 28
-86 34 -88 290 -88 217 0 224 1 249 23 24 20 57 128 291 952 160 563 261 937
258 951 -10 38 -49 46 -218 42 -143 -3 -157 -5 -177 -24 -16 -17 -62 -184
-209 -763 -104 -408 -190 -746 -192 -751 -2 -5 -86 311 -187 703 -225 871
-205 803 -241 822 -43 22 -316 22 -348 -1z"/>
<path d="M1005 3349 c-72 -87 -276 -283 -375 -360 -111 -86 -284 -204 -387
-264 -100 -58 -164 -123 -206 -213 l-32 -67 -3 -277 -3 -278 536 0 535 0 0
760 c0 418 -3 760 -7 760 -5 0 -30 -28 -58 -61z"/>
<path d="M2840 2653 l0 -763 535 0 535 0 0 253 c0 282 -6 319 -65 417 -46 75
-83 108 -204 180 -280 165 -528 367 -734 600 l-66 75 -1 -762z"/>
<path d="M1853 1285 c-172 -37 -305 -180 -335 -357 -27 -164 77 -580 188 -756
51 -81 91 -121 149 -148 141 -67 278 12 378 219 86 175 157 451 157 606 0 224
-144 400 -360 441 -67 13 -100 12 -177 -5z m155 -270 c107 -45 133 -126 96
-303 -33 -160 -127 -412 -154 -412 -37 0 -147 342 -165 513 -11 102 28 173
112 203 50 17 66 17 111 -1z"/>
</g>
</svg>
